<svg width="148" height="48" viewBox="0 0 148 48" fill="none" xmlns="http://www.w3.org/2000/svg">
<path d="M11.1 39L9 36.9L19.35 26.5125L24.6 31.7625L32.3625 24L34.5 26.1375L24.6 36L19.35 30.75L11.1 39ZM6 37.5C5.175 37.5 4.4685 37.206 3.8805 36.618C3.2925 36.03 2.999 35.324 3 34.5V13.5C3 12.675 3.294 11.9685 3.882 11.3805C4.47 10.7925 5.176 10.499 6 10.5H27C27.825 10.5 28.5315 10.794 29.1195 11.382C29.7075 11.97 30.001 12.676 30 13.5V19.8H6V37.5Z" fill="#FF6848"/>
<path d="M11.1 39L9 36.9L19.35 26.5125L24.6 31.7625L32.3625 24L34.5 26.1375L24.6 36L19.35 30.75L11.1 39Z" fill="#FF6848"/>
<path d="M60.792 12.052H64.284V37H60.792V25.48H48.588V37H45.096V12.052H48.588V22.456H60.792V12.052ZM86.7868 27.64C86.7868 29.128 86.5708 30.472 86.1388 31.672C85.7068 32.872 85.0948 33.904 84.3028 34.768C83.5348 35.632 82.6108 36.304 81.5308 36.784C80.4508 37.24 79.2748 37.468 78.0028 37.468C76.7308 37.468 75.5548 37.24 74.4748 36.784C73.3948 36.304 72.4588 35.632 71.6668 34.768C70.8988 33.904 70.2988 32.872 69.8668 31.672C69.4348 30.472 69.2188 29.128 69.2188 27.64C69.2188 26.176 69.4348 24.844 69.8668 23.644C70.2988 22.42 70.8988 21.376 71.6668 20.512C72.4588 19.648 73.3948 18.988 74.4748 18.532C75.5548 18.052 76.7308 17.812 78.0028 17.812C79.2748 17.812 80.4508 18.052 81.5308 18.532C82.6108 18.988 83.5348 19.648 84.3028 20.512C85.0948 21.376 85.7068 22.42 86.1388 23.644C86.5708 24.844 86.7868 26.176 86.7868 27.64ZM83.2948 27.64C83.2948 25.528 82.8148 23.86 81.8548 22.636C80.9188 21.388 79.6348 20.764 78.0028 20.764C76.3708 20.764 75.0748 21.388 74.1148 22.636C73.1788 23.86 72.7108 25.528 72.7108 27.64C72.7108 29.752 73.1788 31.432 74.1148 32.68C75.0748 33.904 76.3708 34.516 78.0028 34.516C79.6348 34.516 80.9188 33.904 81.8548 32.68C82.8148 31.432 83.2948 29.752 83.2948 27.64ZM98.4092 17.884C98.6972 17.884 99.0212 17.908 99.3812 17.956C99.7652 17.98 100.137 18.028 100.497 18.1C100.857 18.148 101.181 18.208 101.469 18.28C101.781 18.328 102.009 18.376 102.153 18.424L101.577 21.34C101.313 21.244 100.869 21.136 100.245 21.016C99.6452 20.872 98.8652 20.8 97.9052 20.8C97.2812 20.8 96.6572 20.872 96.0332 21.016C95.4332 21.136 95.0372 21.22 94.8452 21.268V37H91.4972V19.072C92.2892 18.784 93.2732 18.52 94.4492 18.28C95.6252 18.016 96.9452 17.884 98.4092 17.884ZM111.72 34.588C112.512 34.588 113.208 34.576 113.808 34.552C114.432 34.504 114.948 34.432 115.356 34.336V28.756C115.116 28.636 114.72 28.54 114.168 28.468C113.64 28.372 112.992 28.324 112.224 28.324C111.72 28.324 111.18 28.36 110.604 28.432C110.052 28.504 109.536 28.66 109.056 28.9C108.6 29.116 108.216 29.428 107.904 29.836C107.592 30.22 107.436 30.736 107.436 31.384C107.436 32.584 107.82 33.424 108.588 33.904C109.356 34.36 110.4 34.588 111.72 34.588ZM111.432 17.812C112.776 17.812 113.904 17.992 114.816 18.352C115.752 18.688 116.496 19.18 117.048 19.828C117.624 20.452 118.032 21.208 118.272 22.096C118.512 22.96 118.632 23.92 118.632 24.976V36.676C118.344 36.724 117.936 36.796 117.408 36.892C116.904 36.964 116.328 37.036 115.68 37.108C115.032 37.18 114.324 37.24 113.556 37.288C112.812 37.36 112.068 37.396 111.324 37.396C110.268 37.396 109.296 37.288 108.408 37.072C107.52 36.856 106.752 36.52 106.104 36.064C105.456 35.584 104.952 34.96 104.592 34.192C104.232 33.424 104.052 32.5 104.052 31.42C104.052 30.388 104.256 29.5 104.664 28.756C105.096 28.012 105.672 27.412 106.392 26.956C107.112 26.5 107.952 26.164 108.912 25.948C109.872 25.732 110.88 25.624 111.936 25.624C112.272 25.624 112.62 25.648 112.98 25.696C113.34 25.72 113.676 25.768 113.988 25.84C114.324 25.888 114.612 25.936 114.852 25.984C115.092 26.032 115.26 26.068 115.356 26.092V25.156C115.356 24.604 115.296 24.064 115.176 23.536C115.056 22.984 114.84 22.504 114.528 22.096C114.216 21.664 113.784 21.328 113.232 21.088C112.704 20.824 112.008 20.692 111.144 20.692C110.04 20.692 109.068 20.776 108.228 20.944C107.412 21.088 106.8 21.244 106.392 21.412L105.996 18.64C106.428 18.448 107.148 18.268 108.156 18.1C109.164 17.908 110.256 17.812 111.432 17.812ZM123.149 27.676C123.149 26.02 123.389 24.58 123.869 23.356C124.349 22.108 124.985 21.076 125.777 20.26C126.569 19.444 127.481 18.832 128.513 18.424C129.545 18.016 130.601 17.812 131.681 17.812C134.201 17.812 136.133 18.604 137.477 20.188C138.821 21.748 139.492 24.136 139.492 27.352C139.492 27.496 139.492 27.688 139.492 27.928C139.492 28.144 139.48 28.348 139.457 28.54H126.641C126.785 30.484 127.349 31.96 128.333 32.968C129.317 33.976 130.853 34.48 132.941 34.48C134.117 34.48 135.101 34.384 135.893 34.192C136.709 33.976 137.321 33.772 137.729 33.58L138.197 36.388C137.789 36.604 137.069 36.832 136.037 37.072C135.029 37.312 133.877 37.432 132.581 37.432C130.949 37.432 129.533 37.192 128.333 36.712C127.157 36.208 126.185 35.524 125.417 34.66C124.649 33.796 124.073 32.776 123.688 31.6C123.329 30.4 123.149 29.092 123.149 27.676ZM136.001 25.84C136.025 24.328 135.641 23.092 134.849 22.132C134.081 21.148 133.013 20.656 131.645 20.656C130.877 20.656 130.193 20.812 129.593 21.124C129.017 21.412 128.525 21.796 128.117 22.276C127.709 22.756 127.385 23.308 127.145 23.932C126.929 24.556 126.785 25.192 126.713 25.84H136.001Z" fill="currentColor"/>
</svg>
