<svg width="38" height="32" viewBox="0 0 38 32" fill="none" xmlns="http://www.w3.org/2000/svg">
<path d="M21.4612 26.8334L24.1001 31.4778C31.1723 28.2056 37.8223 20.8167 37.8223 11C37.8223 4.98335 34.0223 0.444458 29.0612 0.444458C24.1001 0.444458 21.4612 4.03335 21.4612 7.62224C21.4612 11.7389 24.2056 14.9056 28.4279 14.9056C29.4834 14.9056 30.4334 14.4833 31.0667 14.1667C30.9612 18.1778 27.4779 23.8778 21.4612 26.8334ZM0.772303 26.8334L3.30564 31.4778C10.4834 28.2056 17.0279 20.8167 17.0279 11C17.0279 4.98335 13.2279 0.444458 8.26675 0.444458C3.41119 0.444458 0.666748 4.03335 0.666748 7.62224C0.666748 11.7389 3.41119 14.9056 7.63342 14.9056C8.68897 14.9056 9.74453 14.4833 10.2723 14.1667C10.1667 18.1778 6.68341 23.8778 0.772303 26.8334Z" fill="#F8E1E1"/>
</svg>
