<svg width="20" height="20" viewBox="0 0 20 20" fill="none" xmlns="http://www.w3.org/2000/svg">
<path d="M15.3034 6.70832L14.7142 6.11915C13.5984 5.00306 12.1228 4.31902 10.5499 4.18876C8.9771 4.0585 7.40906 4.49045 6.1248 5.40776C4.84054 6.32508 3.92336 7.66826 3.53645 9.19832C3.14955 10.7284 3.318 12.3461 4.01185 13.7636C4.7057 15.1811 5.87994 16.3065 7.32564 16.9396C8.77134 17.5726 10.3947 17.6722 11.907 17.2207C13.4192 16.7692 14.7223 15.7958 15.5842 14.4737C16.4462 13.1517 16.8112 11.5667 16.6142 10.0008M15.3034 6.70832L11.7676 6.70915M15.3034 6.70832V3.17249" stroke="#CC3A3A" stroke-width="1.5" stroke-linecap="round" stroke-linejoin="round"/>
</svg>
