<svg width="40" height="40" viewBox="0 0 40 40" fill="none" xmlns="http://www.w3.org/2000/svg">
    <rect width="40" height="40" rx="20" fill="#F1F1F1" />
    <path
    d="M28.7168 14.9999C28.0751 15.2916 27.3834 15.4833 26.6668 15.5749C27.4001 15.1333 27.9668 14.4333 28.2334 13.5916C27.5418 14.0083 26.7751 14.2999 25.9668 14.4666C25.3084 13.7499 24.3834 13.3333 23.3334 13.3333C21.3751 13.3333 19.7751 14.9333 19.7751 16.9083C19.7751 17.1916 19.8084 17.4666 19.8668 17.7249C16.9001 17.5749 14.2584 16.1499 12.5001 13.9916C12.1918 14.5166 12.0168 15.1333 12.0168 15.7833C12.0168 17.0249 12.6418 18.1249 13.6084 18.7499C13.0168 18.7499 12.4668 18.5833 11.9834 18.3333V18.3583C11.9834 20.0916 13.2168 21.5416 14.8501 21.8666C14.3257 22.0101 13.7752 22.0301 13.2418 21.9249C13.4681 22.6353 13.9114 23.2569 14.5093 23.7024C15.1072 24.1478 15.8297 24.3947 16.5751 24.4083C15.3115 25.4086 13.7451 25.9493 12.1334 25.9416C11.8501 25.9416 11.5668 25.9249 11.2834 25.8916C12.8668 26.9083 14.7501 27.4999 16.7668 27.4999C23.3334 27.4999 26.9418 22.0499 26.9418 17.3249C26.9418 17.1666 26.9418 17.0166 26.9334 16.8583C27.6334 16.3583 28.2334 15.7249 28.7168 14.9999Z"
    fill="#606060"
    />
</svg>